# xmcd
#
# Track frame offsets:
# 150
# 17130
# 34368
#
# Disc length: 887 seconds
#
# Revision: 0
# Processed by: cddbd v1.5.1PL0 Copyright (c) Steve Scherf et al.
# Submitted via: Axialis_AX_CDPlayer 2.6
#
DISCID=1f037503
DTITLE=Moby - Spiders CD2
DYEAR=1900
DGENRE=
TTITLE0=(Album Version)
TTITLE1=Put the Headphones On
TTITLE2=Raining Again (Ewan Pearson Vocal)
EXTD=
EXTT0=
EXTT1=
EXTT2=
PLAYORDER=
